<svg version="1.1" xmlns="http://www.w3.org/2000/svg" viewBox="0 0 1296.7999725341797 596.0000076293945" width="1296.7999725341797" height="596.0000076293945">
  <!-- svg-source:excalidraw -->
  
  <defs>
    <style class="style-fonts">
      @font-face {
        font-family: "Virgil";
        src: url("https://excalidraw.com/Virgil.woff2");
      }
      @font-face {
        font-family: "Cascadia";
        src: url("https://excalidraw.com/Cascadia.woff2");
      }
    </style>
  </defs>
  <rect x="0" y="0" width="1296.7999725341797" height="596.0000076293945" fill="#ffffff"></rect><g stroke-linecap="round" transform="translate(10 10) rotate(0 631.6000213623047 288.00000381469727)"><path d="M-0.27 0.53 C256.8 3.16, 511.51 2.35, 1262.57 -0.48 M0.21 -0.21 C347.81 2.31, 696.07 1.68, 1262.87 -0.28 M1263.72 0.74 C1263.1 218.85, 1262.6 438.55, 1262.94 576.02 M1263.58 -0.34 C1263.9 186.52, 1264.31 372.91, 1263.35 576 M1262.89 575.25 C899.18 573.93, 533.93 573.86, -0.04 575.26 M1262.86 575.67 C826.39 574.89, 390.22 575.59, 0.14 575.86 M-0.61 575.72 C0.36 417.22, 1.25 257.54, -0.14 -0.45 M-0.25 576.34 C0.97 364.63, 0.82 152.74, -0.36 -0.21" stroke="#000000" stroke-width="1" fill="none"></path></g><g stroke-linecap="round" transform="translate(77.19996643066406 28.39995574951172) rotate(0 352.40003967285156 240.40001678466797)"><path d="M0.04 -0.15 C192.79 -0.04, 384.66 -0.57, 705.57 -0.24 M-0.23 0.27 C236.76 0.67, 473.76 0.75, 704.72 -0.38 M705.2 0.53 C704.71 98.8, 705.11 196.58, 704.66 481 M705.18 -0.32 C703.38 119.51, 702.89 239.09, 704.72 480.96 M705.57 480.48 C469.89 483.59, 235.15 483.57, 0.31 480.81 M705.16 480.7 C460.14 482.83, 215.22 483, -0.08 481.2 M-0.13 479.96 C0.66 299.34, 0.74 117.88, 0.53 -0.72 M0.18 480.54 C1.21 347.35, 1.76 213.66, -0.37 -0.36" stroke="#000000" stroke-width="1" fill="none"></path></g><g transform="translate(100.39997863769531 45.199974060058594) rotate(0 29 12.5)"><text x="0" y="18" font-family="Virgil, Segoe UI Emoji" font-size="20px" fill="#000000" text-anchor="start" style="white-space: pre;" direction="ltr">App.js</text></g><g stroke-linecap="round" transform="translate(93.19999694824219 125.20000457763672) rotate(0 126.79998779296875 177.19998931884766)"><path d="M-0.53 -0.05 C92.93 2.79, 188.08 2.26, 253.34 -0.44 M0.52 0.49 C91.93 1.5, 183.92 1.54, 253.11 -0.51 M252.92 -0.11 C251.73 92.66, 250.72 186.15, 253.04 354.99 M253.9 0.02 C252.29 123.92, 252.73 247.88, 253.42 354.51 M254.53 355.29 C176.54 355.25, 103.67 354.91, 1.49 355.25 M254.16 353.72 C160.51 355.34, 66.86 354.88, -0.38 353.64 M-0.7 354.05 C-1.69 271.63, -0.39 187.56, 0.28 -0.63 M0.62 354.22 C-1.96 272.61, -2.64 191.06, 0.54 0.57" stroke="#000000" stroke-width="1" fill="none"></path></g><g transform="translate(129.7999725341797 145.1999740600586) rotate(0 44 12.5)"><text x="0" y="18" font-family="Virgil, Segoe UI Emoji" font-size="20px" fill="#000000" text-anchor="start" style="white-space: pre;" direction="ltr">Profile.js</text></g><g stroke-linecap="round" transform="translate(391.59996032714844 126.79998016357422) rotate(0 141.60000610351562 173.60000610351562)"><path d="M-0.93 -0.47 C90.74 2.45, 180.29 0.91, 282.24 -1.31 M-0.09 0.16 C81.29 0.12, 161.03 0.54, 282.64 -0.09 M283.48 -1.28 C283.8 110.54, 283.03 220.53, 284.47 346.88 M282.69 0.44 C281.5 115.57, 281.03 232.19, 283.2 347.4 M284.22 347.36 C218.23 346.84, 150.18 345.13, -0.28 347.69 M282.94 347.08 C196.31 349.26, 108.98 349.19, -0.32 346.71 M0.97 346.71 C0.68 213.02, -1.27 79.57, 1.08 0.15 M-0.16 346.67 C1.09 235.79, 0.23 125.54, -0.11 0.46" stroke="#000000" stroke-width="1" fill="none"></path></g><g transform="translate(425.7999725341797 141.79998016357422) rotate(0 41 12.5)"><text x="0" y="18" font-family="Virgil, Segoe UI Emoji" font-size="20px" fill="#000000" text-anchor="start" style="white-space: pre;" direction="ltr">Posts.js</text></g><g stroke-linecap="round" transform="translate(413.99998474121094 192.39998626708984) rotate(0 110 110.39999389648438)"><path d="M-0.62 1.09 C83.67 -1.79, 168.93 -1.15, 218.46 1.55 M-0.27 -0.68 C62.97 -1.5, 124.3 -1.18, 219.79 0.16 M220.5 -0.5 C222.02 61.96, 219.81 124.4, 220.44 222.35 M219.64 0.37 C220.97 74.84, 220.2 147.84, 220.54 220.12 M220.37 222.29 C171.18 221.81, 123.81 221.51, 0.1 219.52 M219.2 220.38 C134.64 221.83, 48.65 222.93, 0.02 221.28 M1.08 222.42 C-0.42 166.64, -1.91 113.34, 1.67 -1.63 M-0.15 221.27 C1.71 160.47, 0.51 99.04, -0.72 0.22" stroke="#000000" stroke-width="1" fill="none"></path></g><g transform="translate(438.7999725341797 201.79998016357422) rotate(0 35.5 12.5)"><text x="0" y="18" font-family="Virgil, Segoe UI Emoji" font-size="20px" fill="#000000" text-anchor="start" style="white-space: pre;" direction="ltr">Post.js</text></g><g stroke-linecap="round" transform="translate(433.19993591308594 250.79998016357422) rotate(0 81.20001220703125 61.600006103515625)"><path d="M1.64 -1.85 C35.79 1.86, 72.29 1.39, 163.7 0.05 M-0.98 0.62 C58.6 -0.44, 115.34 -1.29, 162.9 0.96 M160.67 -0.35 C163.17 27.16, 163.06 49.75, 161.8 121.53 M162.74 -0.87 C163.88 40.53, 163.59 79.47, 162.11 122.41 M164.09 121.96 C123.42 123.2, 82.56 124.01, -0.85 122.78 M161.5 123.31 C99.25 124.76, 34.09 123.6, -0.97 122.37 M-0.27 124.85 C1.22 93.02, 0.47 58.89, 1.65 -0.39 M-0.46 122.31 C0.93 85.31, 1.46 47.29, 0.89 -0.25" stroke="#000000" stroke-width="1" fill="none"></path></g><g stroke-linecap="round" transform="translate(458.7999725341797 273.99999237060547) rotate(0 51.600006103515625 37.59999084472656)"><path d="M1.48 -0.2 C22.36 0.6, 43.79 -2.25, 105.01 -0.42 M-0.6 -0.14 C22.98 0.12, 44.98 0.53, 102.59 -0.31 M104.47 -0.7 C104 15.98, 104.27 36.08, 102.47 75.04 M104.14 -0.75 C103.18 26.18, 103.09 53.88, 102.47 75.27 M103.59 75.88 C65.27 75.02, 26.01 74.99, 0.01 76.33 M103.42 74.79 C72.11 74.96, 41.75 75.53, -0.45 75.88 M-1.23 76.02 C0.28 57.72, -1.45 40.6, 0.82 -1.44 M-0.89 74.55 C-0.35 47.08, -1.01 21.3, -0.19 -0.32" stroke="#000000" stroke-width="1" fill="none"></path></g><g stroke-linecap="round" transform="translate(481.99998474121094 293.2000045776367) rotate(0 30.79998779296875 19.200027465820312)"><path d="M-0.07 0 C17.83 0.1, 37.32 -1.31, 62.4 -0.47 M-0.69 0 C24.89 -1.03, 49.32 -0.28, 61.54 -0.73 M62.88 1.39 C60.56 9.97, 60.46 23.86, 60.11 37.42 M61.61 0.09 C61.88 14.7, 61.09 29.15, 61.56 39.32 M63.52 40.18 C39.15 39.25, 17.59 38.11, -1.45 39.7 M60.74 39.37 C44.59 38.04, 27.71 39.52, 0.13 38.1 M0.53 39.46 C-2.22 28.48, -0.59 18.35, 1.98 -0.99 M0.8 38.38 C-1.15 31.63, 0.46 23.47, -0.45 -0.61" stroke="#000000" stroke-width="1" fill="none"></path></g><g stroke-linecap="round" transform="translate(495.59996032714844 305.1999740600586) rotate(0 15.20001220703125 9.600006103515625)"><path d="M0.18 0.7 C8.48 -0.87, 16.44 -0.07, 32.24 1.16 M0.89 -0.2 C8.47 -0.25, 16.02 -1.02, 31.05 -0.32 M32.27 -0.92 C28.81 4.03, 31.65 11.51, 29.82 18.34 M30.91 -0.95 C30.5 6.84, 30.34 14.95, 29.92 18.25 M30.36 17.23 C21.87 20.69, 10.58 18.53, -1.23 17.53 M30.48 20.09 C21.36 18.49, 13.6 19.41, 0.28 19.55 M0.47 17.58 C0.86 11.28, 1.42 6.05, 0.34 0.47 M0.89 19.51 C0.83 15.66, -0.86 10.38, -0.5 0.88" stroke="#000000" stroke-width="1" fill="none"></path></g><g stroke-linecap="round" transform="translate(918.7999725341797 73.19998931884766) rotate(0 184 202.4000015258789)"><path d="M1.23 -0.62 C107.07 1.03, 215.95 1.5, 367.98 -1.22 M-0.28 -0.38 C144.36 -1.22, 289.42 -0.86, 368.05 0.55 M368.09 0.32 C366.5 105.92, 365.44 209.14, 368.27 403.86 M368.46 0.1 C367.48 136.69, 367.73 274.12, 368.52 404.98 M366.79 404.16 C222.07 403.23, 72.91 402.2, 0.37 404.73 M368.31 404.99 C236.7 404.25, 103.99 403.12, -0.18 405.33 M0.77 405.08 C0.25 271.8, 0.8 141.65, -0.33 -0.68 M-0.34 404.6 C-0.74 261.34, -0.75 117.3, 0.41 0.17" stroke="#000000" stroke-width="1" fill="none"></path></g><g transform="translate(955.7999725341797 96.79998016357422) rotate(0 62.5 12.5)"><text x="0" y="18" font-family="Virgil, Segoe UI Emoji" font-size="20px" fill="#000000" text-anchor="start" style="white-space: pre;" direction="ltr">Redux Store</text></g><g stroke-linecap="round"><g transform="translate(954.0000457763672 167.60001373291016) rotate(0 -190.5940667515527 -3.5342532321810722)"><path d="M-0.64 0.19 C-64.36 -1.07, -318.17 -5.9, -381.79 -7.26 M1.23 -0.76 C-62.64 -1.84, -318.36 -4.7, -382.42 -5.75" stroke="#000000" stroke-width="1" fill="none"></path></g><g transform="translate(954.0000457763672 167.60001373291016) rotate(0 -190.5940667515527 -3.5342532321810722)"><path d="M-353.77 -14.61 C-363.94 -12.3, -374.91 -7.24, -382.81 -7.71 M-353.23 -16.51 C-360.71 -13.07, -369.05 -10.56, -381.44 -5.39" stroke="#000000" stroke-width="1" fill="none"></path></g><g transform="translate(954.0000457763672 167.60001373291016) rotate(0 -190.5940667515527 -3.5342532321810722)"><path d="M-354.05 5.9 C-364.18 1.13, -375.05 -0.89, -382.81 -7.71 M-353.51 4.01 C-361.05 2.17, -369.32 -0.6, -381.44 -5.39" stroke="#000000" stroke-width="1" fill="none"></path></g></g><mask></mask><g stroke-linecap="round"><g transform="translate(974.0000457763672 269.1999740600586) rotate(0 -220.09506384094715 14.797391018969932)"><path d="M-0.19 -0.44 C-73.39 4.46, -366.2 24.89, -439.38 29.72 M-1.75 -1.72 C-75.04 3.37, -367.02 26.14, -440 31.32" stroke="#000000" stroke-width="1" fill="none"></path></g><g transform="translate(974.0000457763672 269.1999740600586) rotate(0 -220.09506384094715 14.797391018969932)"><path d="M-413.39 20.02 C-420.24 23.7, -430.01 24.38, -440.23 32.4 M-412.61 18.79 C-421.35 22.44, -432.34 26.65, -439.4 32.25" stroke="#000000" stroke-width="1" fill="none"></path></g><g transform="translate(974.0000457763672 269.1999740600586) rotate(0 -220.09506384094715 14.797391018969932)"><path d="M-411.86 40.48 C-419.2 38.31, -429.41 33.14, -440.23 32.4 M-411.08 39.26 C-420.15 35.93, -431.65 33.16, -439.4 32.25" stroke="#000000" stroke-width="1" fill="none"></path></g></g><mask></mask><g stroke-linecap="round"><g transform="translate(513.9999847412109 324.39998626708984) rotate(0 227.09700177460905 -13.935667528570633)"><path d="M-1.06 1.05 C74.65 -3.48, 379.29 -22.11, 455.26 -26.94 M0.58 0.56 C76.12 -4.37, 379.17 -24.34, 454.76 -28.92" stroke="#000000" stroke-width="1" fill="none"></path></g><g transform="translate(513.9999847412109 324.39998626708984) rotate(0 227.09700177460905 -13.935667528570633)"><path d="M429.03 -15.46 C438.2 -20.72, 447.11 -24.84, 455.8 -30.16 M426.96 -16.08 C432.88 -20.11, 439.79 -22.62, 455.16 -29.86" stroke="#000000" stroke-width="1" fill="none"></path></g><g transform="translate(513.9999847412109 324.39998626708984) rotate(0 227.09700177460905 -13.935667528570633)"><path d="M427.72 -35.94 C437.43 -33.36, 446.84 -29.65, 455.8 -30.16 M425.65 -36.56 C431.71 -35.89, 438.92 -33.7, 455.16 -29.86" stroke="#000000" stroke-width="1" fill="none"></path></g></g><mask></mask><g stroke-linecap="round"><g transform="translate(948.3999481201172 193.99999237060547) rotate(0 -174.18035671250425 9.453094665706146)"><path d="M0.39 -0.66 C-57.74 2.72, -289.77 16.34, -347.87 19.57 M-0.87 1.61 C-59.22 4.67, -290.72 14.61, -348.75 17.64" stroke="#000000" stroke-width="1" fill="none"></path></g><g transform="translate(948.3999481201172 193.99999237060547) rotate(0 -174.18035671250425 9.453094665706146)"><path d="M-322.17 6.28 C-330.89 10.18, -342.67 15.55, -347.19 19.05 M-320.21 6.35 C-329.58 8.47, -338.2 12.33, -349.66 17.91" stroke="#000000" stroke-width="1" fill="none"></path></g><g transform="translate(948.3999481201172 193.99999237060547) rotate(0 -174.18035671250425 9.453094665706146)"><path d="M-321.21 26.78 C-330.17 23.01, -342.31 20.7, -347.19 19.05 M-319.25 26.85 C-328.75 22.75, -337.67 20.41, -349.66 17.91" stroke="#000000" stroke-width="1" fill="none"></path></g></g><mask></mask><g stroke-linecap="round"><g transform="translate(605.9999847412109 230.79998016357422) rotate(0 179.75085000155963 -1.9941544455010387)"><path d="M0.82 -0.97 C60.61 -1.56, 299.8 -2.92, 359.71 -3.35 M-0.21 1.14 C59.39 0.18, 298.98 -3.99, 359.03 -5.13" stroke="#000000" stroke-width="1" fill="none"></path></g><g transform="translate(605.9999847412109 230.79998016357422) rotate(0 179.75085000155963 -1.9941544455010387)"><path d="M329.41 6.49 C342.73 3.15, 353.02 -3.35, 357.14 -4.66 M331.28 5.4 C339.45 2.83, 348.09 -0.77, 358.89 -4.15" stroke="#000000" stroke-width="1" fill="none"></path></g><g transform="translate(605.9999847412109 230.79998016357422) rotate(0 179.75085000155963 -1.9941544455010387)"><path d="M329.04 -14.03 C342.54 -9.58, 352.97 -8.29, 357.14 -4.66 M330.91 -15.12 C339.39 -11.38, 348.14 -8.67, 358.89 -4.15" stroke="#000000" stroke-width="1" fill="none"></path></g></g><mask></mask><g transform="translate(1026.7999725341797 129.79998016357422) rotate(0 67.5 49.5)"><text x="0" y="17.75" font-family="Virgil, Segoe UI Emoji" font-size="20px" fill="#000000" text-anchor="start" style="white-space: pre;" direction="ltr">store = {</text><text x="0" y="42.5" font-family="Virgil, Segoe UI Emoji" font-size="20px" fill="#000000" text-anchor="start" style="white-space: pre;" direction="ltr">    posts: [],</text><text x="0" y="67.25" font-family="Virgil, Segoe UI Emoji" font-size="20px" fill="#000000" text-anchor="start" style="white-space: pre;" direction="ltr">    theme: []</text><text x="0" y="92" font-family="Virgil, Segoe UI Emoji" font-size="20px" fill="#000000" text-anchor="start" style="white-space: pre;" direction="ltr">}</text></g><g stroke-linecap="round"><g transform="translate(228.399917602539 163.84086167183582) rotate(0 386.4086088174442 -44.58227857494357)"><path d="M0.75 0.75 C64.44 -14.01, 254.4 -83.77, 383.14 -88.06 C511.87 -92.34, 708.36 -35.52, 773.14 -24.97 M-0.32 0.1 C63.19 -15.03, 253.69 -85.17, 382.58 -89.66 C511.46 -94.16, 708.07 -37.34, 772.97 -26.85" stroke="#000000" stroke-width="1" fill="none"></path></g><g transform="translate(228.399917602539 163.84086167183582) rotate(0 386.4086088174442 -44.58227857494357)"><path d="M744.51 -21.52 C756.25 -22.6, 767.43 -26.35, 774.76 -25.24 M742.66 -23.21 C751.15 -23.91, 758.1 -24.37, 772.49 -27.47" stroke="#000000" stroke-width="1" fill="none"></path></g><g transform="translate(228.399917602539 163.84086167183582) rotate(0 386.4086088174442 -44.58227857494357)"><path d="M748.82 -41.58 C759 -34.96, 768.53 -31.03, 774.76 -25.24 M746.98 -43.27 C754.26 -38.78, 760.09 -34.03, 772.49 -27.47" stroke="#000000" stroke-width="1" fill="none"></path></g></g><mask></mask><g stroke-linecap="round" transform="translate(113.19996643066406 206.79998016357422) rotate(0 96.40000915527344 98.80003356933594)"><path d="M0.18 -0.91 C63.09 -0.26, 125.23 -2.79, 193.58 -0.36 M0.28 0.86 C43.6 0.46, 85.44 1.54, 193.16 -0.54 M193.24 -0.39 C192.38 50.62, 194.04 98.92, 192.21 199.46 M192.46 -0.48 C192.11 72.54, 191.63 143.14, 193.54 197.83 M191.84 198.08 C150.46 199.91, 111.77 196.83, 0.42 195.69 M192.97 197.45 C123.04 196.86, 52.56 197.36, 0.27 197.87 M1.96 195.74 C-0.69 148.24, 1.78 95.58, -1.08 -1.22 M0.57 197.21 C-0.7 122.21, -1.07 44.91, -0.66 -0.86" stroke="#000000" stroke-width="1" fill="none"></path></g><g transform="translate(153.7999725341797 232.79998016357422) rotate(0 25 12.5)"><text x="0" y="18" font-family="Virgil, Segoe UI Emoji" font-size="20px" fill="#000000" text-anchor="start" style="white-space: pre;" direction="ltr">Title</text></g><g stroke-linecap="round"><g transform="translate(218.7999725341797 248.39998626708984) rotate(0 402.73708670167724 -80.68644514934877)"><path d="M-0.52 -0.07 C64.21 -26.6, 254.71 -147.29, 388.74 -158.82 C522.78 -170.36, 734.21 -84.45, 803.69 -69.28 M1.4 -1.15 C65.95 -28.01, 253.66 -149.15, 387.76 -160.33 C521.86 -171.5, 736.25 -83.3, 806 -68.22" stroke="#000000" stroke-width="1" fill="none"></path></g><g transform="translate(218.7999725341797 248.39998626708984) rotate(0 402.73708670167724 -80.68644514934877)"><path d="M775.93 -66.57 C787.79 -68.77, 794.8 -66.16, 807.66 -68.88 M776.62 -66.64 C783.99 -67.55, 791.22 -67, 806.07 -68.96" stroke="#000000" stroke-width="1" fill="none"></path></g><g transform="translate(218.7999725341797 248.39998626708984) rotate(0 402.73708670167724 -80.68644514934877)"><path d="M781.81 -86.23 C791.81 -82.03, 796.9 -73, 807.66 -68.88 M782.51 -86.3 C788.31 -82.33, 794.09 -76.95, 806.07 -68.96" stroke="#000000" stroke-width="1" fill="none"></path></g></g><mask></mask><g transform="translate(231.7999725341797 41.79998016357422) rotate(0 146 12.5)"><text x="0" y="18" font-family="Virgil, Segoe UI Emoji" font-size="20px" fill="#000000" text-anchor="start" style="white-space: pre;" direction="ltr">Angular/Vue/React/Svelte/.../</text></g></svg>